<svg xmlns="http://www.w3.org/2000/svg" width="95.938" height="67.05" viewBox="0 0 95.938 67.05">
  <g id="logo-2" transform="translate(0 -0.019)">
    <path id="Path_19611" data-name="Path 19611" d="M39.927,6.344a.758.758,0,0,1,.479,1.078c-.24.6-.719.359-1.078.719l-1.557,2.036A23.917,23.917,0,0,1,34.9,14.249c-.359.12-.719-.12-.12-.838l3.713-5.15c.838-1.078.359-.479.479-1.2a.767.767,0,0,1,.958-.719m5.39,17.247c.24.479-.479,1.2-.958,1.8s-.838,1.078-1.318,1.677l-1.317,1.677c-.12.359.24.6-.24,1.078a.836.836,0,0,1-1.318-.958c.24-.6.6-.359.958-.6l2.515-3.354C44.478,23.951,44.718,23.352,45.317,23.592ZM44.957,20c.24.479-.12.719-.838,1.677l-2.276,3.114c-.12.359.24.6-.24,1.078a.725.725,0,0,1-.958.12.827.827,0,0,1-.359-.958c.12-.479.479-.479.838-.6a8.789,8.789,0,0,0,1.2-1.557c.359-.479.838-1.078,1.2-1.557a5.07,5.07,0,0,0,.6-.838C44.359,20.238,44.359,19.879,44.957,20ZM37.172,6.344a.8.8,0,0,1,.359,1.437c-.6.479,0-.479-1.2,1.2-.24.359-1.8,2.755-2.156,2.755-.479.12-.479-.24-.359-.6l1.557-2.156c.12-.24.958-1.2.958-1.437s-.24-.479,0-.958A.9.9,0,0,1,37.172,6.344Zm1.437,18.924a1.3,1.3,0,0,1-.12.719c-.719.958-2.156-.359-1.2-1.078.6-.359.359.24,1.078-.6.958-1.318,3.833-4.671,4.192-5.629-2.156.359-3.473.719-5.749-.359A8.116,8.116,0,0,1,32.142,9.7a7.776,7.776,0,0,1,.838-2.515c.24-.479,1.078-2.036,1.8-1.677s-.6,1.437-1.2,2.875a7.013,7.013,0,0,0,7.306,9.582,7.88,7.88,0,0,0,1.8-.479c.359-.12,1.318-.719,1.437,0a17.15,17.15,0,0,1-1.8,2.635C41.843,20.717,38.609,25.029,38.609,25.268ZM41.963,2.991a1.1,1.1,0,0,1-.838,2.036A1.1,1.1,0,1,1,41.963,2.991ZM33.819,23.711a.991.991,0,0,1-.838,1.8C32.022,24.909,32.621,23.112,33.819,23.711ZM45.8,18.92a4.6,4.6,0,0,0-1.557-1.8,7.749,7.749,0,0,0-2.994-1.437,11.594,11.594,0,0,0-1.437-.24c-.479.24-.958,2.156-1.916,1.677-.12-.6.6-1.078.838-1.677-1.437.12-2.4.958-2.875.719-.719-.359.12-1.2.479-1.677l2.994-4.072c.359-.479-.12-.6.24-1.078a.793.793,0,0,1,1.437.6c-.12.479-.359.479-.838.6a2.6,2.6,0,0,0-.719.838c-.359.6-.838,1.078-1.2,1.677a14.532,14.532,0,0,0-1.2,1.677c.479,0,.838-.24,1.2-.24a4.913,4.913,0,0,1,1.317-.12l3.713-4.911c.479-.6,0-.479.24-1.078.12-.359.6-.479,1.078-.359.359.12.479.6.479.958-.12.6-.479.479-.838.6a10.192,10.192,0,0,0-1.2,1.557,25.378,25.378,0,0,0-2.4,3.354l1.437.24.719.24a10.678,10.678,0,0,0,1.2.6l1.078.719A8.758,8.758,0,0,1,46.754,18.2a7.6,7.6,0,0,1,.958,5.869,10.166,10.166,0,0,1-1.078,2.635,24.287,24.287,0,0,0-1.557,2.156c2.994,0,4.671,1.318,6.827.838,1.078-.24.958-2.036.838-2.875-.12-.958-.6-2.276.12-2.875,1.078-.838.359-.479.479-.958.12-.359.24-.24.24-.719,0-.24-.12-.6-.12-.838-.12-1.557,1.317-.719,1.916-1.8a7.367,7.367,0,0,0-1.437-2.276,11.787,11.787,0,0,1-1.677-2.156c-.719-.359.6-1.318.479-2.755a13.021,13.021,0,0,0-.479-3.114A10.977,10.977,0,0,0,45.2,1.913a10.935,10.935,0,0,0-8.025-.12c-3.593,1.318-6.947,4.192-7.665,8.145-.6,3.953.479,8.5,3.473,10.9a2.506,2.506,0,0,0,.719.479c.24.12.6.24.838.359.479.24.479,1.318-.958.838-5.51-2.4-6.947-12.1-3.354-16.888A10.809,10.809,0,0,1,32.5,3.23,16.779,16.779,0,0,1,38.729.236C43.4-.722,48.072,1.673,50.347,3.829A14.011,14.011,0,0,1,53.222,8.74c.359,1.078.958,3.953.479,5.15-.359.958-.6.6-.359,1.318a23.636,23.636,0,0,1,2.515,3.114c1.557,2.4-.24,2.635-1.318,3.234,0,.359.12.719.12.958,0,.359-.12.6-.12.958a1.617,1.617,0,0,1-.958,1.437c0,1.8,1.317,4.432-.958,5.749-1.916,1.2-6.947-1.437-7.905-.359a5.2,5.2,0,0,0-.958,2.4.5.5,0,0,1-.958-.12,6.012,6.012,0,0,1,.24-1.437c.6-2.635,2.276-3.833,3.114-5.39A7.245,7.245,0,0,0,45.8,18.92Z" transform="translate(5.587 0)" fill="#fff" fillRule="evenodd"/>
    <g id="Group_38734" data-name="Group 38734" transform="translate(0 34.491)">
      <g id="Group_38732" data-name="Group 38732" transform="translate(13.774 19.403)">
        <path id="Path_19612" data-name="Path 19612" d="M11.5,57.7V47.52h.719V49.2a3.435,3.435,0,0,1,3.114-1.8,3.717,3.717,0,0,1-.24,7.426,3.293,3.293,0,0,1-2.994-1.8V57.7Zm6.588-6.588a2.766,2.766,0,0,0-2.994-2.994,2.867,2.867,0,0,0-2.875,2.994,2.941,2.941,0,0,0,2.875,2.994A2.766,2.766,0,0,0,18.088,51.113Z" transform="translate(-11.5 -44.525)" fill="#fff"/>
        <path id="Path_19613" data-name="Path 19613" d="M24.09,48.818a3.239,3.239,0,0,0-2.276-.719c-1.078,0-2.156.359-2.156,1.317s1.318,1.2,2.156,1.317c1.318.24,2.994.479,2.994,2.156,0,1.557-1.677,2.036-2.994,2.036A3.559,3.559,0,0,1,18.7,53.489l.479-.479a3.233,3.233,0,0,0,2.635,1.2c.838,0,2.156-.24,2.276-1.317,0-1.078-1.2-1.2-2.4-1.437-1.437-.24-2.755-.479-2.755-1.916S20.377,47.5,21.814,47.5a3.431,3.431,0,0,1,2.635.958Z" transform="translate(-10.076 -44.506)" fill="#fff"/>
        <path id="Path_19614" data-name="Path 19614" d="M31.407,47.5,26.976,57.681h-.719l1.318-3.114L24.7,47.5h.719L27.1,51.812l.838,2.036.838-2.156,1.8-4.192Z" transform="translate(-8.89 -44.506)" fill="#fff"/>
        <path id="Path_19615" data-name="Path 19615" d="M37.448,53.748a3.716,3.716,0,0,1-2.635,1.078,3.713,3.713,0,1,1,0-7.426,3.716,3.716,0,0,1,2.635,1.078l-.479.479a3.075,3.075,0,0,0-2.156-.838,2.994,2.994,0,0,0,0,5.989,3.731,3.731,0,0,0,2.156-.838Z" transform="translate(-7.625 -44.525)" fill="#fff"/>
        <path id="Path_19616" data-name="Path 19616" d="M38.3,45v4.312a2.773,2.773,0,0,1,2.635-1.437c2.036,0,2.994,1.317,2.994,3.234v4.072H43.21V51.108a2.207,2.207,0,0,0-2.276-2.515,2.485,2.485,0,0,0-2.515,2.635v3.953H37.7V45Z" transform="translate(-6.32 -45)" fill="#fff"/>
        <path id="Path_19617" data-name="Path 19617" d="M45.4,45.589a.6.6,0,0,1-1.2,0C44.32,44.87,45.4,44.87,45.4,45.589Zm-.958,2.4v7.186h.719V47.984Z" transform="translate(-5.034 -44.99)" fill="#fff"/>
        <path id="Path_19618" data-name="Path 19618" d="M53.726,47.52v7.186h-.719V53.149a3.561,3.561,0,0,1-2.994,1.677,3.713,3.713,0,1,1,0-7.426,3.415,3.415,0,0,1,2.994,1.677V47.52h.719Zm-6.588,3.593a2.894,2.894,0,0,0,2.994,2.994c3.953,0,3.953-5.989,0-5.989A2.894,2.894,0,0,0,47.138,51.113Z" transform="translate(-4.619 -44.525)" fill="#fff"/>
        <path id="Path_19619" data-name="Path 19619" d="M55.876,45.7v2.156h2.4v.6h-2.4v4.432c0,.958.24,1.677,1.317,1.677a3.5,3.5,0,0,0,1.078-.24l.24.6a3.123,3.123,0,0,1-1.317.359c-1.557,0-2.036-.958-2.036-2.276V48.455H53.6v-.6h1.557V45.7Z" transform="translate(-3.176 -44.862)" fill="#fff"/>
        <path id="Path_19620" data-name="Path 19620" d="M59.619,47.5v1.318a2.528,2.528,0,0,1,2.4-1.318,2.407,2.407,0,0,1,1.557.479l-.359.6a2.311,2.311,0,0,0-1.2-.359,2.4,2.4,0,0,0-2.4,2.4v4.192H58.9V47.62h.719Z" transform="translate(-2.128 -44.506)" fill="#fff"/>
        <path id="Path_19621" data-name="Path 19621" d="M69.888,47.5,65.576,57.681h-.719l1.317-3.114L63.3,47.5h.719L65.7,51.812l.838,2.036.838-2.156,1.8-4.192Z" transform="translate(-1.258 -44.506)" fill="#fff"/>
      </g>
      <g id="Group_38733" data-name="Group 38733">
        <path id="Path_19622" data-name="Path 19622" d="M11.977,32.992a6.014,6.014,0,0,0-3.833-1.557c-3.234,0-5.27,2.515-5.27,5.629,0,2.515,1.437,5.15,5.27,5.15a5.118,5.118,0,0,0,3.473-1.2V38.262H7.665V35.627h6.588v6.468A7.771,7.771,0,0,1,8.145,44.85C2.4,44.85,0,41.137,0,37.064,0,32.753,2.635,28.8,8.145,28.8a8,8,0,0,1,5.629,2.4Z" transform="translate(0 -28.8)" fill="#fff"/>
        <path id="Path_19623" data-name="Path 19623" d="M23.581,32.9l2.4,8.145L28.491,32.9h2.994L27.653,43.8H24.539l-1.078-3.234L22.5,36.972l-.958,3.593-1.2,3.234H17.233L13.4,32.9h3.114l2.515,8.145,2.4-8.145Z" transform="translate(2.65 -27.989)" fill="#fff"/>
        <path id="Path_19624" data-name="Path 19624" d="M33.214,30.652a1.557,1.557,0,0,1-3.114,0A1.557,1.557,0,0,1,33.214,30.652ZM30.34,33.646v10.78h2.635V33.646Z" transform="translate(5.952 -28.736)" fill="#fff"/>
        <path id="Path_19625" data-name="Path 19625" d="M42.525,43.819V38.19c0-1.677-.838-2.875-2.635-2.875a2.841,2.841,0,0,0-2.755,2.994v5.51H34.5V33.04h2.4l.12,1.437A4.852,4.852,0,0,1,40.608,32.8c2.515,0,4.551,1.916,4.551,5.27v5.749Z" transform="translate(6.822 -28.009)" fill="#fff"/>
        <path id="Path_19626" data-name="Path 19626" d="M53.225,43.819V38.19c0-1.677-.838-2.875-2.635-2.875a2.841,2.841,0,0,0-2.755,2.994v5.51H45.2V33.04h2.4l.12,1.437A4.852,4.852,0,0,1,51.308,32.8c2.515,0,4.551,1.916,4.551,5.27v5.749Z" transform="translate(8.937 -28.009)" fill="#fff"/>
        <path id="Path_19627" data-name="Path 19627" d="M58.455,39.288c.12,1.318,1.317,2.276,3.234,2.276a4.611,4.611,0,0,0,2.875-.958l1.677,1.677a6.512,6.512,0,0,1-4.671,1.8c-3.713,0-5.869-2.276-5.869-5.749A5.44,5.44,0,0,1,61.449,32.7c3.593,0,5.869,2.276,5.39,6.707H58.455Zm5.869-2.156a2.461,2.461,0,0,0-2.755-2.156,2.863,2.863,0,0,0-2.994,2.156Z" transform="translate(11.013 -28.029)" fill="#fff"/>
        <path id="Path_19628" data-name="Path 19628" d="M70.671,30.4v3.114h2.994V35.79H70.671v4.671a1.359,1.359,0,0,0,1.437,1.557,3.123,3.123,0,0,0,1.318-.359l.719,2.276a4.7,4.7,0,0,1-2.156.479c-2.4.12-3.833-1.2-3.833-3.953V35.79H66V33.514h2.036V30.759Z" transform="translate(13.05 -28.484)" fill="#fff"/>
        <path id="Path_19629" data-name="Path 19629" d="M77.951,30.4v3.114h2.994V35.79H77.951v4.671a1.359,1.359,0,0,0,1.437,1.557,3.123,3.123,0,0,0,1.317-.359l.719,2.276a4.7,4.7,0,0,1-2.156.479c-2.4.12-3.833-1.2-3.833-3.953V35.79H73.4V33.514h2.036V30.759Z" transform="translate(14.513 -28.484)" fill="#fff"/>
      </g>
    </g>
  </g>
</svg>
