<svg width="173" height="121" viewBox="0 0 173 121" fill="none" xmlns="http://www.w3.org/2000/svg">
<g clip-path="url(#clip0_702_2)">
<path fillRule="evenodd" clip-rule="evenodd" d="M82.1744 11.4516C82.8232 11.6676 83.4719 12.3158 83.0394 13.3962C82.6069 14.4766 81.7419 14.0444 81.0932 14.6926L78.2819 18.3658C77.8494 19.4462 73.5244 25.7123 73.0919 25.7123C72.4432 25.9283 71.7944 25.4962 72.8757 24.1998L79.5794 14.9087C81.0932 12.9641 80.2282 14.0444 80.4444 12.748C80.4444 11.8837 81.3094 11.2355 82.1744 11.4516ZM91.9057 42.5658C92.3382 43.4301 91.0407 44.7266 90.1757 45.8069C89.3107 46.8873 88.6619 47.7516 87.7969 48.8319L85.4182 51.8569C85.2019 52.5051 85.8507 52.9373 84.9857 53.8016C83.9044 54.8819 81.9582 53.5855 82.6069 52.073C83.0394 50.9926 83.6882 51.4248 84.3369 50.9926L88.8782 44.9426C90.3919 43.2141 90.8244 42.1337 91.9057 42.5658ZM91.2569 36.0837C91.6894 36.948 91.0407 37.3801 89.7432 39.1087L85.6344 44.7266C85.4182 45.3748 86.0669 45.8069 85.2019 46.6712C84.7694 47.1033 84.1207 47.3194 83.4719 46.8873C83.0394 46.6712 82.6069 46.023 82.8232 45.1587C83.0394 44.2944 83.6882 44.2944 84.3369 44.0783C84.7694 43.8623 86.0669 41.9176 86.4994 41.2694C87.1482 40.4051 88.0132 39.3248 88.6619 38.4605C89.0944 38.0283 89.3107 37.5962 89.7432 36.948C90.1757 36.5158 90.1757 35.8676 91.2569 36.0837ZM77.2007 11.4516C78.7144 11.6676 78.7144 13.3962 77.8494 14.0444C76.7682 14.9087 77.8494 13.1801 75.6869 16.2051C75.2544 16.8533 72.4432 21.1748 71.7944 21.1748C70.9294 21.3908 70.9294 20.7426 71.1457 20.0944L73.9569 16.2051C74.1732 15.773 75.6869 14.0444 75.6869 13.6123C75.6869 13.1801 75.2544 12.748 75.6869 11.8837C75.9032 11.6676 76.5519 11.2355 77.2007 11.4516ZM79.7957 45.5908C79.7957 46.2391 79.7957 46.4551 79.5794 46.8873C78.2819 48.6158 75.6869 46.2391 77.4169 44.9426C78.4982 44.2944 78.0657 45.3748 79.3632 43.8623C81.0932 41.4855 86.2832 35.4355 86.9319 33.7069C83.0394 34.3551 80.6607 35.0033 76.5519 33.0587C70.7132 30.4658 67.0369 23.9837 68.1182 17.5016C68.3344 15.773 68.9832 14.2605 69.6319 12.9641C70.0644 12.0998 71.5782 9.29085 72.8757 9.93906C74.1732 10.5873 71.7944 12.5319 70.7132 15.1248C67.0369 24.1998 74.6057 33.4908 83.9044 32.4105C84.9857 32.1944 86.2832 31.9783 87.1482 31.5462C87.7969 31.3301 89.5269 30.2498 89.7432 31.5462C89.7432 32.1944 86.9319 35.6516 86.4994 36.2998C85.6344 37.3801 79.7957 45.1587 79.7957 45.5908ZM85.8507 5.40156C88.2294 6.48192 86.7157 9.93906 84.3369 9.07478C81.9582 7.99442 83.2557 4.32121 85.8507 5.40156ZM71.1457 42.7819C73.3082 43.8623 71.7944 46.8873 69.6319 46.023C67.9019 44.9426 68.9832 41.7016 71.1457 42.7819ZM92.7707 34.1391C92.1219 32.8426 91.0407 31.5462 89.9594 30.898C88.8782 30.0337 86.2832 28.5212 84.5532 28.3051C84.5532 28.3051 82.6069 27.873 81.9582 27.873C81.0932 28.3051 80.2282 31.7623 78.4982 30.898C78.2819 29.8176 79.5794 28.9533 80.0119 27.873C77.4169 28.0891 75.6869 29.6016 74.8219 29.1694C73.5244 28.5212 75.0382 27.0087 75.6869 26.1444L81.0932 18.798C81.7419 17.9337 80.8769 17.7176 81.5257 16.8533C82.3907 15.5569 84.5532 16.4212 84.1207 17.9337C83.9044 18.798 83.4719 18.798 82.6069 19.0141C82.1744 19.2301 81.7419 19.8783 81.3094 20.5266C80.6607 21.6069 79.7957 22.4712 79.1469 23.5516C78.4982 24.4158 77.4169 25.7123 76.9844 26.5766C77.8494 26.5766 78.4982 26.1444 79.1469 26.1444C80.0119 25.9283 80.6607 25.9283 81.5257 25.9283L88.2294 17.0694C89.0944 15.9891 88.2294 16.2051 88.6619 15.1248C88.8782 14.4766 89.7432 14.2605 90.6082 14.4766C91.2569 14.6926 91.4732 15.5569 91.4732 16.2051C91.2569 17.2855 90.6082 17.0694 89.9594 17.2855C89.7432 17.2855 88.2294 19.4462 87.7969 20.0944C87.1482 20.9587 83.4719 25.4962 83.4719 26.1444L86.0669 26.5766L87.3644 27.0087C87.3644 27.0087 88.8782 27.873 89.5269 28.0891C90.1757 28.5212 90.8244 28.9533 91.4732 29.3855C92.5544 30.2498 93.6357 31.5462 94.5007 32.8426C96.4469 36.0837 97.0957 39.3248 96.2307 43.4301C95.7982 45.1587 95.1494 46.6712 94.2844 48.1837C93.6357 49.2641 91.9057 50.9926 91.4732 52.073C96.8794 52.073 99.9069 54.4498 103.799 53.5855C105.746 53.1533 105.529 49.9123 105.313 48.3998C105.097 46.6712 104.232 44.2944 105.529 43.2141C107.476 41.7016 106.178 42.3498 106.394 41.4855C106.611 40.8373 106.827 41.0533 106.827 40.1891C106.827 39.7569 106.611 39.1087 106.611 38.6766C106.394 35.8676 108.989 37.3801 110.071 35.4355C109.854 34.1391 108.124 32.1944 107.476 31.3301C106.611 30.2498 104.664 28.3051 104.448 27.4408C103.151 26.7926 105.529 25.0641 105.313 22.4712C105.313 20.5266 104.881 18.5819 104.448 16.8533C102.502 10.3712 97.9607 5.61764 91.6894 3.45692C86.2832 1.51228 82.3907 1.51228 77.2007 3.24085C70.7132 5.61764 64.6582 10.8033 63.3607 17.9337C62.2794 25.0641 64.2257 33.2748 69.6319 37.5962C70.0644 38.0283 70.4969 38.2444 70.9294 38.4605C71.3619 38.6766 72.0107 38.8926 72.4432 39.1087C73.3082 39.5408 73.3082 41.4855 70.7132 40.6212C60.7657 36.2998 58.1707 18.798 64.6582 10.1551C65.9557 8.21049 67.0369 7.34621 68.7669 5.83371C70.9294 3.88906 76.1194 1.29621 80.0119 0.431921C88.4457 -1.29665 96.8794 3.02478 100.988 6.91406C102.718 8.64263 105.313 12.748 106.178 15.773C106.827 17.7176 107.908 22.9033 107.043 25.0641C106.394 26.7926 105.962 26.1444 106.394 27.4408C107.043 27.873 110.287 31.9783 110.936 33.0587C113.747 37.3801 110.503 37.8123 108.557 38.8926C108.557 39.5408 108.773 40.1891 108.773 40.6212C108.773 41.2694 108.557 41.7016 108.557 42.3498C108.557 43.6462 107.692 44.5105 106.827 44.9426C106.827 48.1837 109.206 52.9373 105.097 55.3141C101.637 57.4748 92.5544 52.7212 90.8244 54.6658C89.5269 56.1783 89.3107 58.123 89.0944 58.9873C88.6619 59.8516 87.5807 59.6355 87.3644 58.7712C87.3644 58.3391 87.5807 56.6105 87.7969 56.1783C88.8782 51.4248 91.9057 49.2641 93.4194 46.4551C95.1494 42.5658 95.1494 37.5962 92.7707 34.1391Z" fill="#13297E"/>
<path d="M24.8691 121V102.634H26.1666V105.659C27.2479 103.714 29.1941 102.418 31.7891 102.418C35.2491 102.634 38.0604 105.011 38.0604 109.116C38.0604 113.438 35.0329 115.814 31.3566 115.814C29.1941 115.814 27.0316 114.734 25.9504 112.573V121H24.8691ZM36.7629 109.116C36.7629 105.443 34.3841 103.714 31.3566 103.714C28.3291 103.714 26.1666 106.091 26.1666 109.116C26.1666 112.141 28.5454 114.518 31.3566 114.518C34.3841 114.518 36.7629 112.789 36.7629 109.116Z" fill="#13297E"/>
<path d="M50.1707 105.011C48.8732 103.93 47.5757 103.714 46.0619 103.714C44.1157 103.714 42.1695 104.363 42.1695 106.091C42.1695 107.82 44.5482 108.252 46.0619 108.468C48.4407 108.9 51.4682 109.332 51.4682 112.357C51.4682 115.166 48.4407 116.03 46.0619 116.03C43.6832 116.03 41.5207 115.166 40.4395 113.438L41.3045 112.573C42.3857 114.086 44.3319 114.734 46.0619 114.734C47.5757 114.734 49.9545 114.302 50.1707 112.357C50.1707 110.413 48.0082 110.197 45.8457 109.764C43.2507 109.332 40.872 108.9 40.872 106.307C40.872 103.714 43.4669 102.634 46.0619 102.634C48.0082 102.634 49.522 103.066 50.8195 104.363L50.1707 105.011Z" fill="#13297E"/>
<path d="M65.5241 102.634L57.5228 121H56.2253L58.6041 115.382L53.4141 102.634H54.7116L57.7391 110.413L59.2528 114.086L60.7666 110.197L64.0103 102.634H65.5241Z" fill="#13297E"/>
<path d="M78.7152 113.87C77.4177 115.166 75.6877 115.814 73.9577 115.814C70.2814 115.814 67.2539 113.222 67.2539 109.116C67.2539 105.011 70.2814 102.418 73.9577 102.418C75.6877 102.418 77.4177 103.066 78.7152 104.363L77.8502 105.227C76.7689 104.147 75.2552 103.714 73.9577 103.714C70.9302 103.714 68.5514 105.659 68.5514 109.116C68.5514 112.573 70.9302 114.518 73.9577 114.518C75.2552 114.518 76.7689 113.87 77.8502 113.005L78.7152 113.87Z" fill="#13297E"/>
<path d="M82.6086 97.2322V105.011C83.6898 103.066 85.4198 102.418 87.3661 102.418C91.0423 102.418 92.7723 104.795 92.7723 108.252V115.598H91.4748V108.252C91.4748 105.659 90.1773 103.714 87.3661 103.714C84.5548 103.714 82.8248 105.875 82.8248 108.468V115.598H81.5273V97.2322H82.6086Z" fill="#13297E"/>
<path d="M97.7445 98.3127C97.7445 99.6091 95.582 99.6091 95.582 98.3127C95.7983 97.0162 97.7445 97.0162 97.7445 98.3127ZM96.0145 102.634V115.598H97.312V102.634H96.0145Z" fill="#13297E"/>
<path d="M113.533 102.634C113.533 106.955 113.533 111.277 113.533 115.598H112.235V112.789C110.938 114.734 108.991 115.814 106.829 115.814C103.153 115.814 100.125 113.005 100.125 109.116C100.125 105.227 103.153 102.418 106.829 102.418C108.991 102.418 111.154 103.498 112.235 105.443V102.634H113.533ZM101.639 109.116C101.639 112.357 104.018 114.518 107.045 114.518C114.181 114.518 114.181 103.714 107.045 103.714C104.018 103.714 101.639 105.875 101.639 109.116Z" fill="#13297E"/>
<path d="M120.019 98.7446V102.634H124.344V103.714H120.019V111.709C120.019 113.437 120.451 114.734 122.398 114.734C123.046 114.734 123.695 114.518 124.344 114.302L124.776 115.382C123.911 115.814 123.046 116.03 122.398 116.03C119.586 116.03 118.721 114.302 118.721 111.925V103.714H115.91V102.634H118.721V98.7446H120.019Z" fill="#13297E"/>
<path d="M128.669 102.634V105.011C129.534 103.282 131.264 102.634 132.994 102.634C134.075 102.634 134.94 102.85 135.805 103.498L135.156 104.579C134.507 104.147 133.642 103.93 132.994 103.93C130.615 103.93 128.669 105.875 128.669 108.252V115.814H127.371V102.85H128.669V102.634Z" fill="#13297E"/>
<path d="M148.78 102.634L140.995 121H139.698L142.077 115.382L136.887 102.634H138.184L141.212 110.413L142.725 114.086L144.239 110.197L147.483 102.634H148.78Z" fill="#13297E"/>
<path d="M21.625 69.791C19.6787 68.0624 17.0837 66.9821 14.705 66.9821C8.86625 66.9821 5.19 71.5196 5.19 77.1374C5.19 81.6749 7.785 86.4285 14.705 86.4285C16.8675 86.4285 18.8137 85.9964 20.9762 84.2678V79.2982H13.84V74.5446H25.7337V86.2124C22.9225 89.2374 19.6787 91.1821 14.705 91.1821C4.325 91.1821 0 84.4839 0 77.1374C0 69.3589 4.7575 62.2285 14.705 62.2285C18.3812 62.2285 22.0575 63.741 24.8687 66.5499L21.625 69.791Z" fill="#13297E"/>
<path d="M47.3578 71.0874L51.6828 85.7803L56.2241 71.0874H61.6303L54.7103 90.7499H49.0878L47.1416 84.916L45.4116 78.4338L43.6816 84.916L41.5191 90.7499H35.8966L28.9766 71.0874H34.5991L39.1403 85.7803L43.4653 71.0874H47.3578Z" fill="#13297E"/>
<path d="M70.7143 65.6856C70.7143 69.3588 65.0918 69.3588 65.0918 65.6856C65.0918 62.0124 70.7143 62.0124 70.7143 65.6856ZM65.5243 71.0874V90.5338H70.2818V71.0874H65.5243Z" fill="#13297E"/>
<path d="M89.0942 90.7502V80.5948C89.0942 77.5698 87.5805 75.4091 84.3367 75.4091C81.3092 75.4091 79.363 78.0019 79.363 80.8109V90.7502H74.6055V71.3037H78.9305L79.1467 73.8966C81.093 71.9519 83.0392 70.8716 85.6342 70.8716C90.1755 70.8716 93.8517 74.3287 93.8517 80.3787V90.7502H89.0942Z" fill="#13297E"/>
<path d="M112.233 90.7502V80.5948C112.233 77.5698 110.719 75.4091 107.475 75.4091C104.448 75.4091 102.502 78.0019 102.502 80.8109V90.7502H97.7441V71.3037H102.069L102.285 73.8966C104.232 71.9519 106.178 70.8716 108.773 70.8716C113.314 70.8716 116.99 74.3287 116.99 80.3787V90.7502H112.233Z" fill="#13297E"/>
<path d="M125.425 82.5392C125.641 84.916 127.804 86.6446 131.264 86.6446C132.994 86.6446 135.372 85.9963 136.454 84.916L139.481 87.941C137.535 90.1017 134.075 91.1821 131.047 91.1821C124.344 91.1821 120.451 87.0767 120.451 80.8106C120.451 74.9767 124.56 70.6553 130.831 70.6553C137.319 70.6553 141.427 74.7606 140.562 82.7553H125.425V82.5392ZM136.021 78.6499C135.805 76.0571 133.642 74.7606 131.047 74.7606C128.452 74.7606 126.29 76.0571 125.641 78.6499H136.021Z" fill="#13297E"/>
<path d="M151.158 65.6855V71.3034H156.565V75.4088H151.158V83.8355C151.158 85.7802 152.24 86.6445 153.753 86.6445C154.402 86.6445 155.267 86.4284 156.132 85.9963L157.43 90.1016C156.132 90.7498 154.835 90.9659 153.537 90.9659C149.212 91.182 146.617 88.8052 146.617 83.8355V75.4088H142.725V71.3034H146.401V66.3338L151.158 65.6855Z" fill="#13297E"/>
<path d="M166.944 65.6855V71.3034H172.35V75.4088H166.944V83.8355C166.944 85.7802 168.025 86.6445 169.539 86.6445C170.188 86.6445 171.053 86.4284 171.918 85.9963L173.215 90.1016C171.918 90.7498 170.62 90.9659 169.323 90.9659C164.998 91.182 162.403 88.8052 162.403 83.8355V75.4088H158.727V71.3034H162.403V66.3338L166.944 65.6855Z" fill="#13297E"/>
</g>
<defs>
<clipPath id="clip0_702_2">
<rect width="173" height="121" fill="white"/>
</clipPath>
</defs>
</svg>
