<?xml version="1.0" encoding="utf-8"?>
<!-- Generator: Adobe Illustrator 23.0.3, SVG Export Plug-In . SVG Version: 6.00 Build 0)  -->
<svg version="1.1" id="Layer_1" xmlns="http://www.w3.org/2000/svg" xmlns:xlink="http://www.w3.org/1999/xlink" x="0px" y="0px"
	 viewBox="0 0 80 56" style="enable-background:new 0 0 80 56;" xml:space="preserve">
<style type="text/css">
	.st0{fillRule:evenodd;clip-rule:evenodd;fill:#13297E;}
	.st1{fill:#13297E;}
</style>
<title>logo</title>
<path class="st0" d="M38,5.3c0.3,0.1,0.6,0.4,0.4,0.9c-0.2,0.5-0.6,0.3-0.9,0.6l-1.3,1.7C36,9,34,11.9,33.8,11.9
	c-0.3,0.1-0.6-0.1-0.1-0.7l3.1-4.3c0.7-0.9,0.3-0.4,0.4-1C37.2,5.5,37.6,5.2,38,5.3 M42.5,19.7c0.2,0.4-0.4,1-0.8,1.5
	c-0.4,0.5-0.7,0.9-1.1,1.4l-1.1,1.4c-0.1,0.3,0.2,0.5-0.2,0.9c-0.5,0.5-1.4-0.1-1.1-0.8c0.2-0.5,0.5-0.3,0.8-0.5l2.1-2.8
	C41.8,20,42,19.5,42.5,19.7z M42.2,16.7c0.2,0.4-0.1,0.6-0.7,1.4l-1.9,2.6c-0.1,0.3,0.2,0.5-0.2,0.9c-0.2,0.2-0.5,0.3-0.8,0.1
	c-0.2-0.1-0.4-0.4-0.3-0.8c0.1-0.4,0.4-0.4,0.7-0.5c0.2-0.1,0.8-1,1-1.3c0.3-0.4,0.7-0.9,1-1.3c0.2-0.2,0.3-0.4,0.5-0.7
	C41.7,16.9,41.7,16.6,42.2,16.7z M35.7,5.3c0.7,0.1,0.7,0.9,0.3,1.2c-0.5,0.4,0-0.4-1,1c-0.2,0.3-1.5,2.3-1.8,2.3
	c-0.4,0.1-0.4-0.2-0.3-0.5l1.3-1.8C34.3,7.3,35,6.5,35,6.3c0-0.2-0.2-0.4,0-0.8C35.1,5.4,35.4,5.2,35.7,5.3z M36.9,21.1
	c0,0.3,0,0.4-0.1,0.6c-0.6,0.8-1.8-0.3-1-0.9c0.5-0.3,0.3,0.2,0.9-0.5c0.8-1.1,3.2-3.9,3.5-4.7c-1.8,0.3-2.9,0.6-4.8-0.3
	c-2.7-1.2-4.4-4.2-3.9-7.2c0.1-0.8,0.4-1.5,0.7-2.1c0.2-0.4,0.9-1.7,1.5-1.4c0.6,0.3-0.5,1.2-1,2.4c-1.7,4.2,1.8,8.5,6.1,8
	c0.5-0.1,1.1-0.2,1.5-0.4c0.3-0.1,1.1-0.6,1.2,0c0,0.3-1.3,1.9-1.5,2.2C39.6,17.3,36.9,20.9,36.9,21.1z M39.7,2.5
	C40.8,3,40.1,4.6,39,4.2C37.9,3.7,38.5,2,39.7,2.5z M32.9,19.8c1,0.5,0.3,1.9-0.7,1.5C31.4,20.8,31.9,19.3,32.9,19.8z M42.9,15.8
	c-0.3-0.6-0.8-1.2-1.3-1.5c-0.5-0.4-1.7-1.1-2.5-1.2c0,0-0.9-0.2-1.2-0.2c-0.4,0.2-0.8,1.8-1.6,1.4c-0.1-0.5,0.5-0.9,0.7-1.4
	c-1.2,0.1-2,0.8-2.4,0.6c-0.6-0.3,0.1-1,0.4-1.4l2.5-3.4c0.3-0.4-0.1-0.5,0.2-0.9c0.4-0.6,1.4-0.2,1.2,0.5c-0.1,0.4-0.3,0.4-0.7,0.5
	c-0.2,0.1-0.4,0.4-0.6,0.7c-0.3,0.5-0.7,0.9-1,1.4c-0.3,0.4-0.8,1-1,1.4c0.4,0,0.7-0.2,1-0.2c0.4-0.1,0.7-0.1,1.1-0.1l3.1-4.1
	c0.4-0.5,0-0.4,0.2-0.9c0.1-0.3,0.5-0.4,0.9-0.3c0.3,0.1,0.4,0.5,0.4,0.8c-0.1,0.5-0.4,0.4-0.7,0.5C41.5,8,40.8,9,40.6,9.3
	c-0.3,0.4-2,2.5-2,2.8l1.2,0.2l0.6,0.2c0,0,0.7,0.4,1,0.5c0.3,0.2,0.6,0.4,0.9,0.6c0.5,0.4,1,1,1.4,1.6c0.9,1.5,1.2,3,0.8,4.9
	c-0.2,0.8-0.5,1.5-0.9,2.2c-0.3,0.5-1.1,1.3-1.3,1.8c2.5,0,3.9,1.1,5.7,0.7c0.9-0.2,0.8-1.7,0.7-2.4c-0.1-0.8-0.5-1.9,0.1-2.4
	c0.9-0.7,0.3-0.4,0.4-0.8c0.1-0.3,0.2-0.2,0.2-0.6c0-0.2-0.1-0.5-0.1-0.7c-0.1-1.3,1.1-0.6,1.6-1.5c-0.1-0.6-0.9-1.5-1.2-1.9
	c-0.4-0.5-1.3-1.4-1.4-1.8c-0.6-0.3,0.5-1.1,0.4-2.3c0-0.9-0.2-1.8-0.4-2.6c-0.9-3-3-5.2-5.9-6.2c-2.5-0.9-4.3-0.9-6.7-0.1
	c-3,1.1-5.8,3.5-6.4,6.8c-0.5,3.3,0.4,7.1,2.9,9.1c0.2,0.2,0.4,0.3,0.6,0.4c0.2,0.1,0.5,0.2,0.7,0.3c0.4,0.2,0.4,1.1-0.8,0.7
	c-4.6-2-5.8-10.1-2.8-14.1c0.6-0.9,1.1-1.3,1.9-2c1-0.9,3.4-2.1,5.2-2.5c3.9-0.8,7.8,1.2,9.7,3c0.8,0.8,2,2.7,2.4,4.1
	c0.3,0.9,0.8,3.3,0.4,4.3c-0.3,0.8-0.5,0.5-0.3,1.1c0.3,0.2,1.8,2.1,2.1,2.6c1.3,2-0.2,2.2-1.1,2.7c0,0.3,0.1,0.6,0.1,0.8
	c0,0.3-0.1,0.5-0.1,0.8c0,0.6-0.4,1-0.8,1.2c0,1.5,1.1,3.7-0.8,4.8c-1.6,1-5.8-1.2-6.6-0.3c-0.6,0.7-0.7,1.6-0.8,2
	c-0.2,0.4-0.7,0.3-0.8-0.1c0-0.2,0.1-1,0.2-1.2c0.5-2.2,1.9-3.2,2.6-4.5C44,19.7,44,17.4,42.9,15.8z"/>
<g>
	<g>
		<path class="st1" d="M11.5,56v-8.5h0.6v1.4c0.5-0.9,1.4-1.5,2.6-1.5c1.6,0.1,2.9,1.2,2.9,3.1c0,2-1.4,3.1-3.1,3.1
			c-1,0-2-0.5-2.5-1.5V56H11.5z M17,50.5c0-1.7-1.1-2.5-2.5-2.5c-1.4,0-2.4,1.1-2.4,2.5s1.1,2.5,2.4,2.5C15.9,53,17,52.2,17,50.5z"
			/>
		<path class="st1" d="M23.2,48.6c-0.6-0.5-1.2-0.6-1.9-0.6c-0.9,0-1.8,0.3-1.8,1.1c0,0.8,1.1,1,1.8,1.1c1.1,0.2,2.5,0.4,2.5,1.8
			c0,1.3-1.4,1.7-2.5,1.7c-1.1,0-2.1-0.4-2.6-1.2l0.4-0.4c0.5,0.7,1.4,1,2.2,1c0.7,0,1.8-0.2,1.9-1.1c0-0.9-1-1-2-1.2
			c-1.2-0.2-2.3-0.4-2.3-1.6c0-1.2,1.2-1.7,2.4-1.7c0.9,0,1.6,0.2,2.2,0.8L23.2,48.6z"/>
		<path class="st1" d="M30.3,47.5L26.6,56H26l1.1-2.6l-2.4-5.9h0.6l1.4,3.6l0.7,1.7l0.7-1.8l1.5-3.5H30.3z"/>
		<path class="st1" d="M36.4,52.7c-0.6,0.6-1.4,0.9-2.2,0.9c-1.7,0-3.1-1.2-3.1-3.1c0-1.9,1.4-3.1,3.1-3.1c0.8,0,1.6,0.3,2.2,0.9
			L36,48.7c-0.5-0.5-1.2-0.7-1.8-0.7c-1.4,0-2.5,0.9-2.5,2.5c0,1.6,1.1,2.5,2.5,2.5c0.6,0,1.3-0.3,1.8-0.7L36.4,52.7z"/>
		<path class="st1" d="M38.2,45v3.6c0.5-0.9,1.3-1.2,2.2-1.2c1.7,0,2.5,1.1,2.5,2.7v3.4h-0.6v-3.4c0-1.2-0.6-2.1-1.9-2.1
			c-1.3,0-2.1,1-2.1,2.2v3.3h-0.6V45H38.2z"/>
		<path class="st1" d="M45.2,45.5c0,0.6-1,0.6-1,0C44.3,44.9,45.2,44.9,45.2,45.5z M44.4,47.5v6H45v-6H44.4z"/>
		<path class="st1" d="M52.5,47.5c0,2,0,4,0,6h-0.6v-1.3c-0.6,0.9-1.5,1.4-2.5,1.4c-1.7,0-3.1-1.3-3.1-3.1c0-1.8,1.4-3.1,3.1-3.1
			c1,0,2,0.5,2.5,1.4v-1.3H52.5z M47,50.5c0,1.5,1.1,2.5,2.5,2.5c3.3,0,3.3-5,0-5C48.1,48,47,49,47,50.5z"/>
		<path class="st1" d="M55.5,45.7v1.8h2V48h-2v3.7c0,0.8,0.2,1.4,1.1,1.4c0.3,0,0.6-0.1,0.9-0.2l0.2,0.5c-0.4,0.2-0.8,0.3-1.1,0.3
			c-1.3,0-1.7-0.8-1.7-1.9V48h-1.3v-0.5h1.3v-1.8L55.5,45.7z"/>
		<path class="st1" d="M59.5,47.5l0,1.1c0.4-0.8,1.2-1.1,2-1.1c0.5,0,0.9,0.1,1.3,0.4l-0.3,0.5c-0.3-0.2-0.7-0.3-1-0.3
			c-1.1,0-2,0.9-2,2v3.5h-0.6v-6H59.5z"/>
		<path class="st1" d="M68.8,47.5L65.2,56h-0.6l1.1-2.6l-2.4-5.9h0.6l1.4,3.6l0.7,1.7l0.7-1.8l1.5-3.5H68.8z"/>
	</g>
	<g>
		<path class="st1" d="M10,32.3C9.1,31.5,7.9,31,6.8,31c-2.7,0-4.4,2.1-4.4,4.7c0,2.1,1.2,4.3,4.4,4.3c1,0,1.9-0.2,2.9-1v-2.3H6.4
			v-2.2h5.5v5.4c-1.3,1.4-2.8,2.3-5.1,2.3C2,42.2,0,39.1,0,35.7c0-3.6,2.2-6.9,6.8-6.9c1.7,0,3.4,0.7,4.7,2L10,32.3z"/>
		<path class="st1" d="M21.9,32.9l2,6.8l2.1-6.8h2.5L25.3,42h-2.6l-0.9-2.7l-0.8-3l-0.8,3L19.2,42h-2.6l-3.2-9.1H16l2.1,6.8l2-6.8
			H21.9z"/>
		<path class="st1" d="M32.7,30.4c0,1.7-2.6,1.7-2.6,0C30.1,28.7,32.7,28.7,32.7,30.4z M30.3,32.9v9h2.2v-9H30.3z"/>
		<path class="st1" d="M41.2,42v-4.7c0-1.4-0.7-2.4-2.2-2.4c-1.4,0-2.3,1.2-2.3,2.5V42h-2.2v-9h2l0.1,1.2c0.9-0.9,1.8-1.4,3-1.4
			c2.1,0,3.8,1.6,3.8,4.4V42H41.2z"/>
		<path class="st1" d="M51.9,42v-4.7c0-1.4-0.7-2.4-2.2-2.4c-1.4,0-2.3,1.2-2.3,2.5V42h-2.2v-9h2l0.1,1.2c0.9-0.9,1.8-1.4,3-1.4
			c2.1,0,3.8,1.6,3.8,4.4V42H51.9z"/>
		<path class="st1" d="M58,38.2c0.1,1.1,1.1,1.9,2.7,1.9c0.8,0,1.9-0.3,2.4-0.8l1.4,1.4c-0.9,1-2.5,1.5-3.9,1.5
			c-3.1,0-4.9-1.9-4.9-4.8c0-2.7,1.9-4.7,4.8-4.7c3,0,4.9,1.9,4.5,5.6H58z M62.9,36.4c-0.1-1.2-1.1-1.8-2.3-1.8
			c-1.2,0-2.2,0.6-2.5,1.8H62.9z"/>
		<path class="st1" d="M69.9,30.4V33h2.5v1.9h-2.5v3.9c0,0.9,0.5,1.3,1.2,1.3c0.3,0,0.7-0.1,1.1-0.3l0.6,1.9
			c-0.6,0.3-1.2,0.4-1.8,0.4c-2,0.1-3.2-1-3.2-3.3v-3.9H66V33h1.7v-2.3L69.9,30.4z"/>
		<path class="st1" d="M77.2,30.4V33h2.5v1.9h-2.5v3.9c0,0.9,0.5,1.3,1.2,1.3c0.3,0,0.7-0.1,1.1-0.3l0.6,1.9
			c-0.6,0.3-1.2,0.4-1.8,0.4c-2,0.1-3.2-1-3.2-3.3v-3.9h-1.7V33h1.7v-2.3L77.2,30.4z"/>
	</g>
</g>
</svg>
